<svg width="41" height="18" viewBox="0 0 41 18" fill="none" xmlns="http://www.w3.org/2000/svg">
<path d="M10.3643 13.7568L5.55822 5.18413C5.48258 5.06968 5.34857 5 5.20427 5C5.05997 5 4.92594 5.06968 4.85032 5.18413L0.0442497 13.7568C-0.0192744 13.8724 -0.0141325 14.0104 0.0579302 14.1215C0.129993 14.2327 0.258781 14.3012 0.398203 14.3027H10.0101C10.1495 14.3012 10.2783 14.2327 10.3504 14.1215C10.4225 14.0104 10.4278 13.8724 10.3643 13.7568ZM5.20443 12.8104C5.09855 12.8104 4.99712 12.7713 4.92228 12.7016C4.84743 12.6319 4.80535 12.5374 4.80535 12.439C4.80535 12.3404 4.84743 12.2459 4.92228 12.1762C4.99714 12.1066 5.09856 12.0675 5.20443 12.0675C5.31029 12.0675 5.41173 12.1066 5.48657 12.1762C5.56142 12.2459 5.6035 12.3404 5.6035 12.439C5.60403 12.5376 5.5622 12.6324 5.48718 12.7022C5.41224 12.7719 5.31048 12.8109 5.20443 12.8104ZM5.60352 11.3213C5.60352 11.454 5.52745 11.5766 5.40398 11.643C5.2805 11.7093 5.12837 11.7093 5.00488 11.643C4.88141 11.5766 4.80534 11.454 4.80534 11.3213V8.71131C4.80534 8.57861 4.88141 8.45597 5.00488 8.38962C5.12836 8.32327 5.28049 8.32327 5.40398 8.38962C5.52745 8.45597 5.60352 8.57862 5.60352 8.71131V11.3213Z" fill="#F05A68"/>
<path d="M20.66 8.972H16.136V5.456H15.02V14H16.136V9.944H20.66V14H21.776V5.456H20.66V8.972ZM24.8648 6.644V5.456H23.7608V6.644H24.8648ZM24.8648 14V7.808H23.7608V14H24.8648ZM31.1042 8.768C30.9122 8.432 30.6362 8.156 30.2882 7.964C29.9282 7.772 29.5322 7.676 29.1002 7.676C28.3082 7.676 27.6602 7.964 27.1682 8.54C26.6642 9.128 26.4242 9.884 26.4242 10.808C26.4242 11.792 26.6642 12.596 27.1562 13.196C27.6362 13.82 28.2962 14.132 29.1242 14.132C29.5322 14.132 29.9042 14.048 30.2522 13.856C30.5882 13.676 30.8642 13.424 31.0682 13.1V13.904C31.0682 14.552 30.9242 15.02 30.6482 15.296C30.3602 15.584 29.9042 15.716 29.2682 15.716C28.8002 15.716 28.4402 15.644 28.1882 15.5C27.9362 15.356 27.7682 15.116 27.6962 14.78H26.6162C26.6882 15.38 26.9522 15.836 27.4082 16.136C27.8642 16.448 28.4642 16.592 29.2322 16.592C31.1642 16.592 32.1362 15.668 32.1362 13.796V7.808H31.1042V8.768ZM27.9842 12.536C27.6722 12.116 27.5282 11.54 27.5282 10.808C27.5282 10.112 27.6722 9.584 27.9722 9.2C28.2722 8.816 28.7042 8.624 29.2562 8.624C29.7962 8.624 30.2282 8.816 30.5522 9.2C30.8642 9.584 31.0322 10.136 31.0322 10.832C31.0322 11.552 30.8642 12.128 30.5282 12.548C30.1922 12.98 29.7602 13.184 29.2322 13.184C28.7042 13.184 28.2842 12.968 27.9842 12.536ZM37.1696 7.652C36.2816 7.652 35.6096 7.964 35.1656 8.588V5.456H34.0616V14H35.1656V10.556C35.1656 9.908 35.3216 9.428 35.6576 9.104C35.9816 8.78 36.4016 8.612 36.9296 8.612C37.7456 8.612 38.1656 9.056 38.1656 9.92V14H39.2696V9.704C39.2696 9.056 39.0776 8.552 38.7056 8.192C38.3336 7.832 37.8176 7.652 37.1696 7.652Z" fill="#F05A68"/>
</svg>
