<svg width="24" height="24" viewBox="0 0 24 24" fill="none" xmlns="http://www.w3.org/2000/svg">
<g clip-path="url(#clip0_3447_9624)">
<path d="M12.2291 13.7425C11.1764 13.7425 10.1668 13.3238 9.42237 12.5785C8.67797 11.8332 8.25977 10.8224 8.25977 9.76839V5.92575C8.25977 5.60563 8.32274 5.28864 8.4451 4.99288C8.56746 4.69713 8.74681 4.4284 8.9729 4.20204C9.19899 3.97568 9.4674 3.79612 9.7628 3.67362C10.0582 3.55111 10.3748 3.48806 10.6946 3.48806H13.5655C14.2112 3.48806 14.8305 3.74489 15.2871 4.20204C15.7437 4.6592 16.0003 5.27923 16.0003 5.92575V9.96752C16.0003 10.4633 15.9029 10.9543 15.7134 11.4124C15.5239 11.8705 15.2461 12.2867 14.8959 12.6372C14.5457 12.9878 14.1299 13.2659 13.6723 13.4555C13.2148 13.6451 12.7244 13.7427 12.2291 13.7425V13.7425Z" stroke="black" stroke-width="2" stroke-miterlimit="10"/>
<path d="M15.9996 9.44314H8.25977" stroke="black" stroke-width="2" stroke-miterlimit="10"/>
<path d="M10.5718 6.60329H13.6877" stroke="black" stroke-miterlimit="10"/>
<path d="M12.1299 5.04372V8.16339" stroke="black" stroke-miterlimit="10"/>
<path d="M5.06445 21.0855V18.8912C5.06437 18.4116 5.15866 17.9366 5.34194 17.4935C5.52522 17.0504 5.7939 16.6478 6.13263 16.3086C6.47136 15.9695 6.87351 15.7005 7.31609 15.517C7.75868 15.3335 8.23305 15.2391 8.71208 15.2392H15.4393C15.9183 15.2391 16.3927 15.3335 16.8353 15.517C17.2778 15.7005 17.68 15.9695 18.0187 16.3086C18.3575 16.6478 18.6261 17.0504 18.8094 17.4935C18.9927 17.9366 19.087 18.4116 19.0869 18.8912V21.0855" stroke="black" stroke-width="2" stroke-miterlimit="10"/>
<path d="M9.26855 15.2392V18.2964" stroke="black" stroke-width="2" stroke-miterlimit="10"/>
<path d="M9.26825 21.0119C10.0232 21.0119 10.6351 20.3992 10.6351 19.6434C10.6351 18.8876 10.0232 18.2749 9.26825 18.2749C8.51334 18.2749 7.90137 18.8876 7.90137 19.6434C7.90137 20.3992 8.51334 21.0119 9.26825 21.0119Z" stroke="black" stroke-width="2" stroke-miterlimit="10"/>
</g>
<defs>
<clipPath id="clip0_3447_9624">
<rect width="15" height="18.5" fill="white" transform="translate(4.57422 3)"/>
</clipPath>
</defs>
</svg>
