<svg width="118" height="115" viewBox="0 0 118 115" fill="none" xmlns="http://www.w3.org/2000/svg">
<path d="M111.56 77.8422C112.945 79.19 115.161 79.1594 116.509 77.7738C117.857 76.3882 117.826 74.1723 116.44 72.8245L111.56 77.8422ZM83.4444 45.6111L85.8849 43.1023C84.5263 41.7807 82.3626 41.7807 81.004 43.1023L83.4444 45.6111ZM16.2222 7.5H101.778V0.5H16.2222V7.5ZM101.778 7.5C106.687 7.5 110.5 11.3464 110.5 15.8889H117.5C117.5 7.29924 110.369 0.5 101.778 0.5V7.5ZM110.5 15.8889V99.1111H117.5V15.8889H110.5ZM110.5 99.1111C110.5 103.654 106.687 107.5 101.778 107.5V114.5C110.369 114.5 117.5 107.701 117.5 99.1111H110.5ZM101.778 107.5H16.2222V114.5H101.778V107.5ZM16.2222 107.5C11.3132 107.5 7.5 103.654 7.5 99.1111H0.5C0.5 107.701 7.63094 114.5 16.2222 114.5V107.5ZM7.5 99.1111V15.8889H0.5V99.1111H7.5ZM7.5 15.8889C7.5 11.3464 11.3132 7.5 16.2222 7.5V0.5C7.63094 0.5 0.5 7.29924 0.5 15.8889H7.5ZM43.2778 36.6944C43.2778 39.5954 40.8326 42.1111 37.6111 42.1111V49.1111C44.5149 49.1111 50.2778 43.6426 50.2778 36.6944H43.2778ZM37.6111 42.1111C34.3896 42.1111 31.9444 39.5954 31.9444 36.6944H24.9444C24.9444 43.6426 30.7074 49.1111 37.6111 49.1111V42.1111ZM31.9444 36.6944C31.9444 33.7935 34.3896 31.2778 37.6111 31.2778V24.2778C30.7074 24.2778 24.9444 29.7463 24.9444 36.6944H31.9444ZM37.6111 31.2778C40.8326 31.2778 43.2778 33.7935 43.2778 36.6944H50.2778C50.2778 29.7463 44.5149 24.2778 37.6111 24.2778V31.2778ZM116.44 72.8245L85.8849 43.1023L81.004 48.12L111.56 77.8422L116.44 72.8245ZM81.004 43.1023L13.7818 108.491L18.6626 113.509L85.8849 48.12L81.004 43.1023Z" fill="#6A6A6A"/>
</svg>
