<svg width="23" height="23" viewBox="0 0 23 23" fill="none" xmlns="http://www.w3.org/2000/svg">
<path d="M15.998 11.2167L15.0089 11.3634L15.998 11.2167ZM12.628 7.84668L12.4814 8.83586L12.628 7.84668ZM6.99805 2.84668H16.998V0.84668H6.99805V2.84668ZM16.998 2.84668C19.2072 2.84668 20.998 4.63754 20.998 6.84668H22.998C22.998 3.53297 20.3118 0.84668 16.998 0.84668V2.84668ZM20.998 6.84668V16.8467H22.998V6.84668H20.998ZM20.998 16.8467C20.998 19.0558 19.2072 20.8467 16.998 20.8467V22.8467C20.3118 22.8467 22.998 20.1604 22.998 16.8467H20.998ZM16.998 20.8467H6.99805V22.8467H16.998V20.8467ZM6.99805 20.8467C4.78891 20.8467 2.99805 19.0558 2.99805 16.8467H0.998047C0.998047 20.1604 3.68434 22.8467 6.99805 22.8467V20.8467ZM2.99805 16.8467V6.84668H0.998047V16.8467H2.99805ZM2.99805 6.84668C2.99805 4.63754 4.78891 2.84668 6.99805 2.84668V0.84668C3.68434 0.84668 0.998047 3.53297 0.998047 6.84668H2.99805ZM15.0089 11.3634C15.1014 11.9875 14.9948 12.625 14.7042 13.1851L16.4794 14.1063C16.9638 13.1728 17.1415 12.1103 16.9872 11.07L15.0089 11.3634ZM14.7042 13.1851C14.4136 13.7452 13.9537 14.1994 13.3901 14.4831L14.2893 16.2696C15.2287 15.7968 15.9951 15.0398 16.4794 14.1063L14.7042 13.1851ZM13.3901 14.4831C12.8264 14.7668 12.1877 14.8656 11.5647 14.7653L11.247 16.7399C12.2853 16.907 13.3499 16.7424 14.2893 16.2696L13.3901 14.4831ZM11.5647 14.7653C10.9417 14.6651 10.3662 14.3709 9.91999 13.9247L8.50578 15.3389C9.24943 16.0826 10.2086 16.5728 11.247 16.7399L11.5647 14.7653ZM9.91999 13.9247C9.4738 13.4785 9.17966 12.903 9.07941 12.28L7.10482 12.5978C7.2719 13.6361 7.76213 14.5953 8.50578 15.3389L9.91999 13.9247ZM9.07941 12.28C8.97917 11.657 9.07791 11.0183 9.36161 10.4546L7.57514 9.55546C7.10231 10.4949 6.93773 11.5594 7.10482 12.5978L9.07941 12.28ZM9.36161 10.4546C9.6453 9.891 10.0995 9.43117 10.6596 9.14054L9.73846 7.3653C8.80496 7.84967 8.04796 8.61606 7.57514 9.55546L9.36161 10.4546ZM10.6596 9.14054C11.2197 8.84992 11.8572 8.7433 12.4814 8.83586L12.7747 6.8575C11.7344 6.70323 10.672 6.88092 9.73846 7.3653L10.6596 9.14054ZM12.4814 8.83586C13.1181 8.93028 13.7075 9.22696 14.1626 9.68209L15.5768 8.26788C14.8183 7.50933 13.8359 7.01485 12.7747 6.8575L12.4814 8.83586ZM14.1626 9.68209C14.6178 10.1372 14.9144 10.7267 15.0089 11.3634L16.9872 11.07C16.8299 10.0088 16.3354 9.02643 15.5768 8.26788L14.1626 9.68209Z" fill="#E7E9ED"/>
</svg>
