<svg width="149" height="44" viewBox="0 0 149 44" fill="none" xmlns="http://www.w3.org/2000/svg">
<path d="M65.4961 26.4219L69.0703 19.3672H72.9844L67.3008 29.832V36.5H63.6914V29.9492L58.0078 19.3672H61.9453L65.4961 26.4219ZM90.6914 27.9102C90.6914 30.7461 89.9883 32.9258 88.582 34.4492C87.1758 35.9727 85.1602 36.7344 82.5352 36.7344C79.9102 36.7344 77.8945 35.9727 76.4883 34.4492C75.082 32.9258 74.3789 30.7383 74.3789 27.8867C74.3789 25.0352 75.082 22.8594 76.4883 21.3594C77.9023 19.8516 79.9258 19.0977 82.5586 19.0977C85.1914 19.0977 87.2031 19.8555 88.5938 21.3711C89.9922 22.8867 90.6914 25.0664 90.6914 27.9102ZM78.1875 27.9102C78.1875 29.8242 78.5508 31.2656 79.2773 32.2344C80.0039 33.2031 81.0898 33.6875 82.5352 33.6875C85.4336 33.6875 86.8828 31.7617 86.8828 27.9102C86.8828 24.0508 85.4414 22.1211 82.5586 22.1211C81.1133 22.1211 80.0234 22.6094 79.2891 23.5859C78.5547 24.5547 78.1875 25.9961 78.1875 27.9102ZM108.188 19.3672V30.4531C108.188 31.7188 107.902 32.8281 107.332 33.7812C106.77 34.7344 105.953 35.4648 104.883 35.9727C103.812 36.4805 102.547 36.7344 101.086 36.7344C98.8828 36.7344 97.1719 36.1719 95.9531 35.0469C94.7344 33.9141 94.125 32.3672 94.125 30.4062V19.3672H97.7461V29.8555C97.7461 31.1758 98.0117 32.1445 98.543 32.7617C99.0742 33.3789 99.9531 33.6875 101.18 33.6875C102.367 33.6875 103.227 33.3789 103.758 32.7617C104.297 32.1367 104.566 31.1602 104.566 29.832V19.3672H108.188ZM127.582 36.5H122.965L115.512 23.5391H115.406C115.555 25.8281 115.629 27.4609 115.629 28.4375V36.5H112.383V19.3672H116.965L124.406 32.1992H124.488C124.371 29.9727 124.312 28.3984 124.312 27.4766V19.3672H127.582V36.5ZM138.41 26.8789H145.207V35.7617C144.105 36.1211 143.066 36.3711 142.09 36.5117C141.121 36.6602 140.129 36.7344 139.113 36.7344C136.527 36.7344 134.551 35.9766 133.184 34.4609C131.824 32.9375 131.145 30.7539 131.145 27.9102C131.145 25.1445 131.934 22.9883 133.512 21.4414C135.098 19.8945 137.293 19.1211 140.098 19.1211C141.855 19.1211 143.551 19.4727 145.184 20.1758L143.977 23.082C142.727 22.457 141.426 22.1445 140.074 22.1445C138.504 22.1445 137.246 22.6719 136.301 23.7266C135.355 24.7812 134.883 26.1992 134.883 27.9805C134.883 29.8398 135.262 31.2617 136.02 32.2461C136.785 33.2227 137.895 33.7109 139.348 33.7109C140.105 33.7109 140.875 33.6328 141.656 33.4766V29.9023H138.41V26.8789Z" fill="#0D0D0D"/>
<path d="M121.729 11.7632V12.6064H117.818V11.7632H121.729ZM118.022 4.78613V12.6064H116.986V4.78613H118.022ZM127.1 4.78613H128.131V10.0767C128.131 10.6639 128 11.1527 127.739 11.543C127.477 11.9333 127.13 12.2269 126.697 12.4238C126.267 12.6172 125.8 12.7139 125.295 12.7139C124.765 12.7139 124.285 12.6172 123.855 12.4238C123.429 12.2269 123.091 11.9333 122.84 11.543C122.593 11.1527 122.47 10.6639 122.47 10.0767V4.78613H123.496V10.0767C123.496 10.4849 123.571 10.8215 123.721 11.0864C123.872 11.3514 124.081 11.5483 124.35 11.6772C124.622 11.8062 124.937 11.8706 125.295 11.8706C125.657 11.8706 125.972 11.8062 126.24 11.6772C126.512 11.5483 126.724 11.3514 126.874 11.0864C127.024 10.8215 127.1 10.4849 127.1 10.0767V4.78613ZM132.643 9.53955H130.553V8.69629H132.643C133.047 8.69629 133.375 8.63184 133.625 8.50293C133.876 8.37402 134.059 8.19499 134.173 7.96582C134.292 7.73665 134.351 7.47526 134.351 7.18164C134.351 6.91309 134.292 6.66064 134.173 6.42432C134.059 6.18799 133.876 5.99821 133.625 5.85498C133.375 5.70817 133.047 5.63477 132.643 5.63477H130.795V12.6064H129.758V4.78613H132.643C133.233 4.78613 133.733 4.88818 134.141 5.09229C134.549 5.29639 134.859 5.57926 135.07 5.94092C135.282 6.29899 135.387 6.70898 135.387 7.1709C135.387 7.6722 135.282 8.1001 135.07 8.45459C134.859 8.80908 134.549 9.07943 134.141 9.26562C133.733 9.44824 133.233 9.53955 132.643 9.53955ZM137.81 4.78613V12.6064H136.773V4.78613H137.81ZM145.71 4.78613V12.6064H144.668L140.731 6.57471V12.6064H139.695V4.78613H140.731L144.685 10.834V4.78613H145.71Z" fill="#0D0D0D"/>
<g clip-path="url(#clip0_3447_8174)">
<path fill-rule="evenodd" clip-rule="evenodd" d="M18.8183 16.6777H18.1374L14.0646 10.0315C12.9942 8.5442 12.3353 6.80873 12.1526 4.99538C12.1263 4.35539 12.262 3.71899 12.5478 3.14342C12.8335 2.56785 13.2603 2.07117 13.7896 1.69806C15.1097 0.828942 16.6825 0.408277 18.2683 0.500204C19.9147 0.418699 21.5468 0.836864 22.9435 1.69806C23.4842 2.04487 23.9265 2.52111 24.2289 3.08209C24.5312 3.64307 24.6837 4.2704 24.6721 4.90522C24.635 5.89026 24.385 6.85622 23.9387 7.73885C23.4411 8.78214 21.7387 11.7575 18.8183 16.7549V16.6777Z" fill="#56E35B"/>
<path fill-rule="evenodd" clip-rule="evenodd" d="M18.4648 20.0391H17.7707L13.5801 26.8011C12.4853 28.3224 11.8127 30.0982 11.6289 31.9532C11.6037 32.603 11.7424 33.2489 12.0326 33.8332C12.3228 34.4175 12.7554 34.9221 13.292 35.302C14.6251 36.2141 16.2274 36.6669 17.8493 36.59C19.5316 36.6583 21.1936 36.208 22.6031 35.302C23.1542 34.9578 23.6055 34.4792 23.913 33.9127C24.2205 33.3462 24.3738 32.7111 24.3579 32.0691C24.3292 31.0649 24.0743 30.0795 23.6114 29.184C23.1138 28.1278 21.3721 25.0881 18.3732 20.0648L18.4648 20.0391Z" fill="#56E35B"/>
<path fill-rule="evenodd" clip-rule="evenodd" d="M19.3161 18.8157L18.9756 19.3953C21.49 22.2804 24.921 27.9863 27.9985 29.8282C28.5109 30.1572 29.1016 30.3492 29.7125 30.3853C30.3233 30.4214 30.9331 30.3004 31.4819 30.0343C32.8278 29.4417 33.9275 28.4147 34.5987 27.1234C35.4868 25.7703 35.9722 24.1998 36 22.5895C36.0053 21.9805 35.8486 21.3808 35.5454 20.8498C35.2421 20.3188 34.8029 19.8751 34.2713 19.5627C33.4684 19.1188 32.5721 18.8631 31.6522 18.8157C30.5129 18.7255 24.7901 18.7255 19.3161 18.8157Z" fill="#56E35B"/>
<path fill-rule="evenodd" clip-rule="evenodd" d="M19.3161 17.7209L18.9756 17.1413C21.49 14.2561 24.921 8.56311 27.9985 6.70837C28.5109 6.37941 29.1016 6.18741 29.7125 6.15127C30.3233 6.11513 30.9331 6.23612 31.4819 6.50229C32.8243 7.10003 33.9224 8.12562 34.5987 9.41321C35.4885 10.7703 35.9739 12.3453 36 13.9599C36.0031 14.5667 35.8452 15.1638 35.5421 15.6924C35.239 16.2209 34.801 16.6626 34.2713 16.9738C33.4684 17.4178 32.5721 17.6734 31.6522 17.7209C30.5129 17.8111 24.7901 17.8111 19.3161 17.7209Z" fill="#56E35B"/>
<path fill-rule="evenodd" clip-rule="evenodd" d="M16.9719 18.8801L17.3255 19.4598C14.7063 22.4093 11.2753 28.2054 8.15849 30.0859C7.6366 30.4217 7.03448 30.6174 6.41191 30.6535C5.78935 30.6897 5.168 30.565 4.60956 30.292C3.23854 29.6871 2.11667 28.6427 1.42731 27.3295C0.528287 25.9521 0.0384255 24.355 0.0129784 22.7184C0.00500009 22.096 0.165806 21.4826 0.478838 20.9416C0.79187 20.4005 1.24582 19.9513 1.79399 19.6401C2.62806 19.1784 3.56159 18.918 4.51789 18.8801C5.57864 18.79 11.4062 18.7771 16.9719 18.8801Z" fill="#56E35B"/>
<path fill-rule="evenodd" clip-rule="evenodd" d="M16.972 17.7596L17.3256 17.18C14.7064 14.2304 11.2754 8.43438 8.15859 6.55388C7.63524 6.22167 7.03347 6.02813 6.41167 5.99202C5.78987 5.95591 5.16913 6.07846 4.60967 6.34779C3.23864 6.95265 2.11677 7.99703 1.42742 9.31023C0.528391 10.6876 0.0385296 12.2847 0.0130824 13.9213C0.00373103 14.544 0.163955 15.1579 0.477124 15.6992C0.790293 16.2405 1.245 16.6895 1.79409 16.9997C2.62817 17.4613 3.5617 17.7218 4.518 17.7596C5.57875 17.8498 11.4063 17.8626 16.972 17.7596Z" fill="#56E35B"/>
</g>
<defs>
<clipPath id="clip0_3447_8174">
<rect width="36" height="36" fill="white" transform="translate(0 0.5)"/>
</clipPath>
</defs>
</svg>
