<svg width="45" height="47" viewBox="0 0 45 47" fill="none" xmlns="http://www.w3.org/2000/svg">
<path d="M19.5024 14.2992H22.6539L25.8054 11.1478L28.9568 17.4507L32.1083 9.57202L35.2598 14.2992" stroke="#577CE5" stroke-width="3" stroke-miterlimit="10" stroke-linecap="round" stroke-linejoin="round"/>
<path d="M2.16943 37.9355L6.26634 31.3174C7.4107 29.5043 8.9907 28.0066 10.8623 26.9607C12.7339 25.9148 14.8375 25.3541 16.9813 25.3296H27.3812C27.3762 26.9997 26.7105 28.6 25.5296 29.7809C24.3486 30.9619 22.7483 31.6275 21.0782 31.6325H17.9268" stroke="#577CE5" stroke-width="3" stroke-miterlimit="10" stroke-linecap="round" stroke-linejoin="round"/>
<path d="M21.3759 31.9298H33.0294L34.7774 29.5991C35.589 28.5109 36.6441 27.6278 37.8583 27.0207C39.0725 26.4136 40.4121 26.0993 41.7696 26.1031L37.8365 33.0952C36.8163 34.9459 35.3189 36.4895 33.5 37.5654C31.6812 38.6414 29.6073 39.2104 27.494 39.2133C20.6502 39.2169 13.9602 41.2442 8.26562 45.0401" stroke="#577CE5" stroke-width="3" stroke-miterlimit="10" stroke-linecap="round" stroke-linejoin="round"/>
<path d="M22.9807 24.9643L16.3041 17.8325L14.4832 15.8599C13.022 14.3258 12.207 12.2883 12.207 10.1697C12.207 8.051 13.022 6.01355 14.4832 4.4794V4.4794C15.1949 3.72468 16.0532 3.12336 17.0056 2.71236C17.9581 2.30136 18.9844 2.08936 20.0217 2.08936C21.0591 2.08936 22.0854 2.30136 23.0378 2.71236C23.9903 3.12336 24.8486 3.72468 25.5603 4.4794L27.0777 5.9968C27.1617 6.07022 27.2695 6.11069 27.3811 6.11069C27.4927 6.11069 27.6006 6.07022 27.6846 5.9968L29.202 4.4794C29.9136 3.72468 30.772 3.12336 31.7244 2.71236C32.6768 2.30136 33.7032 2.08936 34.7405 2.08936C35.7778 2.08936 36.8042 2.30136 37.7566 2.71236C38.709 3.12336 39.5674 3.72468 40.279 4.4794V4.4794C41.7402 6.01355 42.5552 8.051 42.5552 10.1697C42.5552 12.2883 41.7402 14.3258 40.279 15.8599L38.4582 17.8325L31.9333 24.5091L27.6846 28.9095" stroke="#577CE5" stroke-width="3" stroke-miterlimit="10" stroke-linecap="round" stroke-linejoin="round"/>
</svg>
