<svg width="24" height="21" viewBox="0 0 24 21" fill="none" xmlns="http://www.w3.org/2000/svg">
<path d="M23 1.85674L23.9716 2.09335C24.0702 1.68835 23.9073 1.26465 23.5627 1.03009C23.2181 0.795527 22.7642 0.799305 22.4236 1.03957L23 1.85674ZM19.86 3.38674L19.1054 4.04297C19.3636 4.33977 19.7717 4.45768 20.1483 4.34427L19.86 3.38674ZM12 6.38674H13.0001L12.9999 6.37333L12 6.38674ZM12 7.38673L12.0259 8.3864C12.5679 8.37234 13 7.92892 13 7.38673H12ZM3 2.85674L3.81836 2.28202C3.61131 1.98721 3.2617 1.82654 2.90314 1.86144C2.54458 1.89633 2.2325 2.12139 2.08619 2.4506L3 2.85674ZM8 15.8567L8.56163 16.6841C8.86205 16.4802 9.02833 16.1294 8.99604 15.7678C8.96374 15.4061 8.73794 15.0904 8.40614 14.9429L8 15.8567ZM1 17.8567L1.03974 16.8575C0.577023 16.8391 0.162197 17.1408 0.0371488 17.5867C-0.0878998 18.0326 0.109546 18.506 0.514357 18.7309L1 17.8567ZM21 6.35674H22L22 6.35343L21 6.35674ZM20.92 5.52674L20.2178 4.81473C19.9802 5.04911 19.8751 5.38663 19.9378 5.71449L20.92 5.52674ZM22.4236 1.03957C21.5538 1.65308 20.5908 2.12231 19.5717 2.42921L20.1483 4.34427C21.3734 3.97538 22.5309 3.41135 23.5764 2.6739L22.4236 1.03957ZM20.6146 2.7305C19.8779 1.88343 18.8988 1.28306 17.8098 1.01057L17.3243 2.95076C18.0159 3.1238 18.6376 3.50506 19.1054 4.04297L20.6146 2.7305ZM17.8098 1.01057C16.7207 0.738078 15.5743 0.806621 14.5255 1.20693L15.2387 3.07545C15.9047 2.82124 16.6327 2.77771 17.3243 2.95076L17.8098 1.01057ZM14.5255 1.20693C13.4767 1.60723 12.5761 2.31999 11.9456 3.24879L13.6004 4.37211C14.0008 3.78228 14.5726 3.32966 15.2387 3.07545L14.5255 1.20693ZM11.9456 3.24879C11.3151 4.1776 10.985 5.27764 11.0001 6.40014L12.9999 6.37333C12.9904 5.6605 13.2 4.96194 13.6004 4.37211L11.9456 3.24879ZM11 6.38674V7.38673H13V6.38674H11ZM11.9741 6.38707C10.3816 6.42836 8.80356 6.07517 7.3806 5.35895L6.48141 7.14541C8.19898 8.00992 10.1037 8.43624 12.0259 8.3864L11.9741 6.38707ZM7.3806 5.35895C5.95764 4.64272 4.7339 3.5857 3.81836 2.28202L2.18164 3.43145C3.28674 5.00504 4.76385 6.2809 6.48141 7.14541L7.3806 5.35895ZM3 2.85674C2.08619 2.4506 2.08597 2.45108 2.08575 2.45159C2.08565 2.45181 2.0854 2.45236 2.08521 2.4528C2.08483 2.45367 2.08438 2.45469 2.08387 2.45584C2.08286 2.45814 2.08161 2.461 2.08013 2.4644C2.07717 2.47121 2.07329 2.4802 2.06856 2.49133C2.05909 2.51358 2.04621 2.54439 2.03044 2.58332C1.99891 2.66115 1.95577 2.77162 1.90528 2.91127C1.80442 3.19024 1.67358 3.58751 1.54748 4.0751C1.29648 5.04563 1.05771 6.39902 1.12603 7.90214C1.19455 9.40964 1.57342 11.0884 2.57706 12.673C3.58471 14.2641 5.18396 15.6995 7.59386 16.7705L8.40614 14.9429C6.31604 14.014 5.04029 12.8244 4.26669 11.6029C3.48908 10.3751 3.18045 9.05383 3.12397 7.81133C3.06729 6.56445 3.26602 5.41784 3.48377 4.57587C3.59205 4.15721 3.70339 3.82011 3.78613 3.59127C3.82744 3.47701 3.86144 3.39021 3.88411 3.33426C3.89544 3.30629 3.90392 3.28607 3.90904 3.27402C3.9116 3.268 3.91332 3.26402 3.91414 3.26215C3.91455 3.26121 3.91473 3.2608 3.91468 3.26091C3.91465 3.26097 3.91457 3.26117 3.91442 3.26149C3.91435 3.26166 3.9142 3.262 3.91416 3.26208C3.91399 3.26246 3.91381 3.26287 3 2.85674ZM7.43837 15.0293C5.55583 16.3072 3.31323 16.948 1.03974 16.8575L0.960255 18.8559C3.66109 18.9634 6.32523 18.2022 8.56163 16.6841L7.43837 15.0293ZM0.514357 18.7309C5.29087 21.3845 10.6509 21.4092 14.8448 19.177C19.0631 16.9318 22 12.4567 22 6.35674H20C20 11.7568 17.4369 15.5317 13.9052 17.4115C10.3491 19.3042 5.70913 19.329 1.48564 16.9826L0.514357 18.7309ZM22 6.35343C21.9989 6.01298 21.9661 5.67338 21.9022 5.33898L19.9378 5.71449C19.9785 5.92728 19.9993 6.14339 20 6.36004L22 6.35343ZM21.6222 6.23874C22.775 5.10186 23.5885 3.66647 23.9716 2.09335L22.0284 1.62012C21.7332 2.83243 21.1062 3.9386 20.2178 4.81473L21.6222 6.23874Z" fill="#E7E9ED"/>
</svg>
